# xmcd CD database file
#
# Track frame offsets:
#	150
#	10667
#	23917
#	34915
#	47411
#	61015
#	73137
#	85994
#	100363
#	113905
#	125393
#	136065
#	147334
#	161598
#	173003
#	185720
#	198207
#	209887
#	221776
#	232319
#	245985
#	256173
#
# Disc length: 3572 seconds
#
# Revision: 0
# Processed by: cddbd v1.5.1PL0 Copyright (c) Steve Scherf et al.
# Submitted via: CDex 1.50beta10
#
DISCID=4a0df216
DTITLE=Slim Whitman - The Man With the Singing Guitar - Vol 2
DYEAR=2005
DGENRE=Country
TTITLE0=Rose Marie
TTITLE1=Why?
TTITLE2=Ride Away
TTITLE3=Wabash Waltz
TTITLE4=Roll On Silivery Moon
TTITLE5=We Stood At The Alter
TTITLE6=I'll Do As Much For You Some Day
TTITLE7=Indian Love Call
TTITLE8=Song Of The Old Waterwheel
TTITLE9=I Hate To See You Cry
TTITLE10=Let's Go To Church (Next Sunday Morning) (With Dolores Watson)
TTITLE11=Singing Hills
TTITLE12=I'll Never Pass This Way Again
TTITLE13=Cattle Call
TTITLE14=Secret Love
TTITLE15=I'm Crying For You
TTITLE16=When I Grow Too OLd To Dream
TTITLE17=I'm Casting My Lasso Towards The Sky
TTITLE18=Beautiful Dreamer
TTITLE19=Haunted Hungry Heart
TTITLE20=Whippoorwill Yodel (He Sleeps All Day True)
TTITLE21=There's A Rainbow in Every Teardrop
EXTD=YEAR: 2005
EXTT0=
EXTT1=
EXTT2=
EXTT3=
EXTT4=
EXTT5=
EXTT6=
EXTT7=
EXTT8=
EXTT9=
EXTT10=
EXTT11=
EXTT12=
EXTT13=
EXTT14=
EXTT15=
EXTT16=
EXTT17=
EXTT18=
EXTT19=
EXTT20=
EXTT21=
PLAYORDER=
